<?xml version="1.0" encoding="UTF-8"?>
<!DOCTYPE svg PUBLIC "-//W3C//DTD SVG 1.1//EN" "http://www.w3.org/Graphics/SVG/1.1/DTD/svg11.dtd">
<!-- Creator: CorelDRAW 2019 (64-Bit) -->
<svg xmlns="http://www.w3.org/2000/svg" xml:space="preserve" width="13.5833in" height="13.5833in" version="1.1" style="shape-rendering:geometricPrecision; text-rendering:geometricPrecision; image-rendering:optimizeQuality; fill-rule:evenodd; clip-rule:evenodd"
viewBox="0 0 5708.9 5708.9"
 xmlns:xlink="http://www.w3.org/1999/xlink"
 xmlns:xodm="http://www.corel.com/coreldraw/odm/2003">
 <defs>
  <style type="text/css">
   <![CDATA[
    .fil0 {fill:black}
    .fil1 {fill:#12AADC}
   ]]>
  </style>
 </defs>
 <g id="Layer_x0020_1">
  <metadata id="CorelCorpID_0Corel-Layer"/>
  <g id="_2303132502944">
   <rect class="fil0" x="0" y="-0" width="5708.9" height="5708.9" rx="658.32" ry="658.32"/>
   <path class="fil1" d="M3169.89 1583.69l-852.07 852.06 -117.95 -117.94 852.07 -852.07c121.84,-121.84 121.84,-320.58 0,-442.41l-197.49 -197.49 -1270.77 1270.77c-121.83,121.83 -121.83,320.57 0.01,442.4l852.06 852.07 -117.94 117.95 -852.07 -852.07c-121.84,-121.84 -320.57,-121.84 -442.41,0l-197.49 197.49 1270.77 1270.77c121.83,121.83 320.57,121.83 442.41,-0.01l852.07 -852.07 117.95 117.94 -852.07 852.07c-121.84,121.84 -121.84,320.58 0,442.41l197.49 197.49 1270.77 -1270.77c121.83,-121.83 121.82,-320.57 -0.01,-442.4l-852.06 -852.07 117.94 -117.95 852.07 852.07c121.84,121.84 320.58,121.84 442.41,0l197.49 -197.49 -1270.77 -1270.77c-121.83,-121.83 -320.57,-121.82 -442.4,0.01z"/>
  </g>
 </g>
</svg>
