<?xml version="1.0" encoding="UTF-8"?>
<!DOCTYPE svg PUBLIC "-//W3C//DTD SVG 1.1//EN" "http://www.w3.org/Graphics/SVG/1.1/DTD/svg11.dtd">
<!-- Creator: CorelDRAW 2019 (64-Bit) -->
<svg xmlns="http://www.w3.org/2000/svg" xml:space="preserve" width="10.2101in" height="10.2101in" version="1.1" style="shape-rendering:geometricPrecision; text-rendering:geometricPrecision; image-rendering:optimizeQuality; fill-rule:evenodd; clip-rule:evenodd"
viewBox="0 0 1831.9 1831.9"
 xmlns:xlink="http://www.w3.org/1999/xlink"
 xmlns:xodm="http://www.corel.com/coreldraw/odm/2003">
 <defs>
  <style type="text/css">
   <![CDATA[
    .fil0 {fill:black}
   ]]>
  </style>
 </defs>
 <g id="Layer_x0020_1">
  <metadata id="CorelCorpID_0Corel-Layer"/>
  <path class="fil0" d="M1058.37 342.18l-384.72 384.72 -53.25 -53.25 384.72 -384.72c55.01,-55.01 55.01,-144.74 0,-199.75l-89.17 -89.17 -573.77 573.77c-55.01,55.01 -55.01,144.74 0,199.75l384.72 384.72 -53.25 53.25 -384.72 -384.72c-55.01,-55.01 -144.74,-55.01 -199.75,0l-89.17 89.17 573.77 573.77c55.01,55.01 144.74,55.01 199.75,-0l384.72 -384.72 53.25 53.25 -384.72 384.72c-55.01,55.01 -55.01,144.74 0,199.75l89.17 89.17 573.77 -573.77c55.01,-55.01 55,-144.74 -0,-199.75l-384.72 -384.72 53.25 -53.25 384.72 384.72c55.01,55.01 144.74,55.01 199.75,0l89.17 -89.17 -573.77 -573.77c-55.01,-55.01 -144.74,-55 -199.75,0z"/>
 </g>
</svg>
