<?xml version="1.0" encoding="UTF-8"?>
<!DOCTYPE svg PUBLIC "-//W3C//DTD SVG 1.1//EN" "http://www.w3.org/Graphics/SVG/1.1/DTD/svg11.dtd">
<!-- Creator: CorelDRAW 2019 (64-Bit) -->
<svg xmlns="http://www.w3.org/2000/svg" xml:space="preserve" width="10.384in" height="2.06488in" version="1.1" style="shape-rendering:geometricPrecision; text-rendering:geometricPrecision; image-rendering:optimizeQuality; fill-rule:evenodd; clip-rule:evenodd"
viewBox="0 0 10384.02 2064.88"
 xmlns:xlink="http://www.w3.org/1999/xlink"
 xmlns:xodm="http://www.corel.com/coreldraw/odm/2003">
 <defs>
  <style type="text/css">
   <![CDATA[
    .fil1 {fill:#12AADC}
    .fil0 {fill:black;fill-rule:nonzero}
   ]]>
  </style>
 </defs>
 <g id="Layer_x0020_1">
  <metadata id="CorelCorpID_0Corel-Layer"/>
  <g id="_2303132487008">
   <path class="fil0" d="M9961.29 0c-365.82,0 -547.39,181.59 -547.39,490.48l0 81.56 -157.17 0 0 39.26 157.17 0 0 1188.02c0,48.76 -46.06,230.33 -113.81,227.62l0 2.71 598.87 0 0 -2.71c-67.74,2.71 -113.81,-178.85 -113.81,-227.62l0 -1188.02 333.31 0 0 -39.26 -333.31 0 0 -81.56c0,-265.57 27.1,-455.25 184.27,-455.25 94.84,0 151.75,70.46 151.75,200.53 0,86.72 -24.39,208.65 -78.58,306.2 168.01,-18.97 341.44,-105.68 341.44,-284.53 0,-173.43 -173.43,-257.43 -422.73,-257.43z"/>
   <path class="fil0" d="M8611.81 2029.65l598.87 0 0 -2.71c-67.74,2.71 -113.81,-178.85 -113.81,-227.62l0 -1799.31c-105.68,86.71 -262.85,86.71 -485.06,86.71l0 2.7c81.3,0 113.81,105.68 113.81,230.34l0 1479.56c0,48.78 -46.06,230.33 -113.81,227.62l0 2.71z"/>
   <path class="fil0" d="M8576.58 1520.21c-94.85,260.14 -647.65,455.25 -793.98,-124.65 425.44,-10.84 704.55,-197.82 704.55,-466.09 0,-219.5 -184.27,-357.69 -430.86,-357.69 -422.73,0 -617.84,395.63 -617.84,742.49 0,349.57 195.11,745.2 588.03,745.2 317.05,0 504.02,-254.72 566.35,-536.54l-16.26 -2.71zm-802.11 -151.75c-18.97,-84 -29.81,-186.98 -29.81,-308.92 0,-311.63 73.16,-438.99 211.37,-438.99 132.78,0 211.37,127.36 211.37,303.5 0,252.01 -154.46,392.92 -392.92,444.41z"/>
   <path class="fil0" d="M6782.67 2029.65l601.59 0 0 -2.71c-70.46,0 -116.53,-176.13 -116.53,-227.62l0 -880.69c0,-154.46 -78.58,-341.44 -289.95,-341.44 -224.92,0 -371.24,211.37 -457.96,395.63l0 -972.82c-105.68,86.71 -262.85,86.71 -485.06,86.71l0 2.7c81.3,0 113.81,105.68 113.81,230.34l0 1479.56c0,48.78 -46.06,230.33 -113.81,227.62l0 2.71 598.87 0 0 -2.71c-67.74,2.71 -113.81,-178.85 -113.81,-227.62l0 -739.78c48.78,-135.49 132.78,-308.92 252.01,-308.92 124.65,0 124.65,189.68 124.65,254.72l0 793.97c0,51.49 -43.36,227.62 -113.81,227.62l0 2.71z"/>
   <path class="fil0" d="M5341.05 56.9c-365.82,0 -625.96,178.85 -625.96,490.48 0,588.03 926.76,634.1 926.76,1211.29 0,170.71 -81.3,262.85 -211.37,262.85 -327.89,0 -533.83,-550.09 -544.67,-886.11l-10.84 0c-86.71,138.2 -159.88,303.5 -159.88,463.37 0,373.96 398.34,466.09 644.94,466.09 365.82,0 625.96,-200.52 625.96,-514.87 0,-596.16 -943.02,-631.39 -943.02,-1189.61 0,-173.43 92.13,-262.85 222.2,-262.85 219.5,0 360.41,249.3 466.09,704.55l13.55 0c70.46,-108.4 138.2,-241.18 138.2,-365.83 0,-211.37 -186.98,-379.38 -541.97,-379.38z"/>
   <path class="fil0" d="M4024.08 2029.65l598.87 0 0 -2.71c-67.74,2.71 -113.81,-178.85 -113.81,-227.62l0 -1799.31c-105.68,86.71 -262.85,86.71 -485.06,86.71l0 2.7c81.3,0 113.81,105.68 113.81,230.34l0 1479.56c0,48.78 -46.06,230.33 -113.81,227.62l0 2.71z"/>
   <path class="fil0" d="M3368.31 2029.65l598.87 0 0 -2.71c-67.74,2.71 -113.81,-178.85 -113.81,-227.62l0 -1799.31c-105.68,86.71 -262.85,86.71 -485.06,86.71l0 2.7c81.3,0 113.81,105.68 113.81,230.34l0 1479.56c0,48.78 -46.06,230.33 -113.81,227.62l0 2.71z"/>
   <path class="fil0" d="M2712.53 2029.65l598.87 0 0 -2.71c-67.74,2.71 -113.81,-178.85 -113.81,-227.62l0 -1197.74c-105.68,86.71 -262.85,86.71 -485.05,86.71l0 2.7c81.3,0 113.81,105.68 113.81,227.63l0 880.69c0,48.78 -46.06,230.33 -113.81,227.62l0 2.71z"/>
   <path class="fil0" d="M1319.68 2029.65l598.87 0 0 -2.71c-67.74,2.71 -113.81,-178.85 -113.81,-227.62l0 -579.9 102.97 -92.13c173.43,-32.52 273.69,108.4 273.69,363.12l0 308.92c0,121.94 -78.58,230.33 -113.81,227.62l0 2.71 601.59 0 0 -2.71c-35.23,2.71 -116.53,-105.68 -116.53,-227.62l0 -308.92c0,-292.66 -219.49,-512.16 -596.16,-406.48l249.3 -222.2c143.62,-130.07 338.73,-260.14 373.96,-257.44l0 -2.7 -371.24 0 0 2.7c35.22,-2.7 97.55,130.07 -46.07,257.44l-357.69 317.05 0 -1178.77c-105.68,86.71 -262.85,86.71 -485.06,86.71l0 2.7c81.3,0 113.81,105.68 113.81,230.34l0 1479.56c0,48.78 -46.06,230.33 -113.81,227.62l0 2.71z"/>
   <path class="fil0" d="M625.97 56.9c-365.83,0 -625.97,178.85 -625.97,490.48 0,588.03 926.76,634.1 926.76,1211.29 0,170.71 -81.3,262.85 -211.37,262.85 -327.89,0 -533.83,-550.09 -544.67,-886.11l-10.85 0c-86.71,138.2 -159.88,303.5 -159.88,463.37 0,373.96 398.35,466.09 644.94,466.09 365.82,0 625.97,-200.52 625.97,-514.87 0,-596.16 -943.02,-631.39 -943.02,-1189.61 0,-173.43 92.13,-262.85 222.2,-262.85 219.5,0 360.41,249.3 466.09,704.55l13.55 0c70.46,-108.4 138.2,-241.18 138.2,-365.83 0,-211.37 -186.98,-379.38 -541.96,-379.38z"/>
   <path class="fil1" d="M3048.45 87.65l-98.54 98.54 -13.64 -13.64 98.54 -98.54c14.09,-14.09 14.09,-37.07 0,-51.17l-22.84 -22.84 -146.96 146.96c-14.09,14.09 -14.09,37.07 0,51.16l98.54 98.54 -13.64 13.64 -98.54 -98.54c-14.09,-14.09 -37.07,-14.09 -51.16,0l-22.84 22.84 146.96 146.96c14.09,14.09 37.07,14.09 51.17,0l98.54 -98.54 13.64 13.64 -98.54 98.54c-14.09,14.09 -14.09,37.07 0,51.16l22.84 22.84 146.96 -146.96c14.09,-14.09 14.09,-37.07 -0,-51.17l-98.54 -98.54 13.64 -13.64 98.54 98.54c14.09,14.09 37.07,14.09 51.17,0l22.84 -22.84 -146.96 -146.96c-14.09,-14.09 -37.07,-14.09 -51.16,0z"/>
  </g>
 </g>
</svg>
